<svg width="60" height="60" viewBox="0 0 60 60" fill="none" xmlns="http://www.w3.org/2000/svg">
<path d="M0 30C0 46.5685 13.4315 60 30 60C46.5685 60 60 46.5685 60 30C60 13.4315 46.5685 0 30 0C13.4315 0 0 13.4315 0 30Z" fill="#F00073" style="fill:#F00073;fill:color(display-p3 0.9412 0.0000 0.4510);fill-opacity:1;"/>
<path d="M30 17.25C34.125 17.25 34.6875 17.25 36.375 17.25C37.875 17.25 38.625 17.625 39.1875 17.8125C39.9375 18.1875 40.5 18.375 41.0625 18.9375C41.625 19.5 42 20.0625 42.1875 20.8125C42.375 21.375 42.5625 22.125 42.75 23.625C42.75 25.3125 42.75 25.6875 42.75 30C42.75 34.3125 42.75 34.6875 42.75 36.375C42.75 37.875 42.375 38.625 42.1875 39.1875C41.8125 39.9375 41.625 40.5 41.0625 41.0625C40.5 41.625 39.9375 42 39.1875 42.1875C38.625 42.375 37.875 42.5625 36.375 42.75C34.6875 42.75 34.3125 42.75 30 42.75C25.6875 42.75 25.3125 42.75 23.625 42.75C22.125 42.75 21.375 42.375 20.8125 42.1875C20.0625 41.8125 19.5 41.625 18.9375 41.0625C18.375 40.5 18 39.9375 17.8125 39.1875C17.625 38.625 17.4375 37.875 17.25 36.375C17.25 34.6875 17.25 34.3125 17.25 30C17.25 25.6875 17.25 25.3125 17.25 23.625C17.25 22.125 17.625 21.375 17.8125 20.8125C18.1875 20.0625 18.375 19.5 18.9375 18.9375C19.5 18.375 20.0625 18 20.8125 17.8125C21.375 17.625 22.125 17.4375 23.625 17.25C25.3125 17.25 25.875 17.25 30 17.25ZM30 14.4375C25.6875 14.4375 25.3125 14.4375 23.625 14.4375C21.9375 14.4375 20.8125 14.8125 19.875 15.1875C18.9375 15.5625 18 16.125 17.0625 17.0625C16.125 18 15.75 18.75 15.1875 19.875C14.8125 20.8125 14.625 21.9375 14.4375 23.625C14.4375 25.3125 14.4375 25.875 14.4375 30C14.4375 34.3125 14.4375 34.6875 14.4375 36.375C14.4375 38.0625 14.8125 39.1875 15.1875 40.125C15.5625 41.0625 16.125 42 17.0625 42.9375C18 43.875 18.75 44.25 19.875 44.8125C20.8125 45.1875 21.9375 45.375 23.625 45.5625C25.3125 45.5625 25.875 45.5625 30 45.5625C34.125 45.5625 34.6875 45.5625 36.375 45.5625C38.0625 45.5625 39.1875 45.1875 40.125 44.8125C41.0625 44.4375 42 43.875 42.9375 42.9375C43.875 42 44.25 41.25 44.8125 40.125C45.1875 39.1875 45.375 38.0625 45.5625 36.375C45.5625 34.6875 45.5625 34.125 45.5625 30C45.5625 25.875 45.5625 25.3125 45.5625 23.625C45.5625 21.9375 45.1875 20.8125 44.8125 19.875C44.4375 18.9375 43.875 18 42.9375 17.0625C42 16.125 41.25 15.75 40.125 15.1875C39.1875 14.8125 38.0625 14.625 36.375 14.4375C34.6875 14.4375 34.3125 14.4375 30 14.4375Z" fill="white" style="fill:white;fill-opacity:1;"/>
<path d="M30 21.9375C25.5 21.9375 21.9375 25.5 21.9375 30C21.9375 34.5 25.5 38.0625 30 38.0625C34.5 38.0625 38.0625 34.5 38.0625 30C38.0625 25.5 34.5 21.9375 30 21.9375ZM30 35.25C27.1875 35.25 24.75 33 24.75 30C24.75 27.1875 27 24.75 30 24.75C32.8125 24.75 35.25 27 35.25 30C35.25 32.8125 32.8125 35.25 30 35.25Z" fill="white" style="fill:white;fill-opacity:1;"/>
<path d="M38.25 23.625C39.2855 23.625 40.125 22.7855 40.125 21.75C40.125 20.7145 39.2855 19.875 38.25 19.875C37.2145 19.875 36.375 20.7145 36.375 21.75C36.375 22.7855 37.2145 23.625 38.25 23.625Z" fill="white" style="fill:white;fill-opacity:1;"/>
</svg>
