<svg width="60" height="60" viewBox="0 0 60 60" fill="none" xmlns="http://www.w3.org/2000/svg">
<path d="M0 30C0 46.5685 13.4315 60 30 60C46.5685 60 60 46.5685 60 30C60 13.4315 46.5685 0 30 0C13.4315 0 0 13.4315 0 30Z" fill="#FF0000" style="fill:#FF0000;fill:color(display-p3 1.0000 0.0000 0.0000);fill-opacity:1;"/>
<path d="M44.25 22.6875C43.875 21.375 42.9375 20.4375 41.625 20.0625C39.375 19.5 29.8125 19.5 29.8125 19.5C29.8125 19.5 20.4375 19.5 18 20.0625C16.6875 20.4375 15.75 21.375 15.375 22.6875C15 25.125 15 30 15 30C15 30 15 34.875 15.5625 37.3125C15.9375 38.625 16.875 39.5625 18.1875 39.9375C20.4375 40.5 30 40.5 30 40.5C30 40.5 39.375 40.5 41.8125 39.9375C43.125 39.5625 44.0625 38.625 44.4375 37.3125C45 34.875 45 30 45 30C45 30 45 25.125 44.25 22.6875ZM27 34.5V25.5L34.875 30L27 34.5Z" fill="white" style="fill:white;fill-opacity:1;"/>
</svg>
